<svg width="40" height="38" viewBox="0 0 40 38" fill="none" xmlns="http://www.w3.org/2000/svg">
<g clip-path="url(#clip0_152_111)">
<path fill-rule="evenodd" clip-rule="evenodd" d="M34.5116 11.9678C35.5412 14.2325 36.1165 16.7488 36.1165 19.3961C36.1165 29.3407 28.0312 37.4031 18.0583 37.4031C14.0106 37.4031 10.2657 36.0745 7.24753 33.8198H18.7951C26.9612 33.8198 26.6483 33.0649 29.4242 25.6064L34.5116 11.9577V11.9678ZM18.0583 1.38901C22.1161 1.38901 25.8509 2.71764 28.869 4.9723H8.73136L6.54095 11.3236H25.5077C26.4969 11.3236 27.0016 11.7161 27.0016 12.4912C27.0016 12.6723 26.9612 12.8535 26.9007 13.0548L23.2567 22.1238C21.7426 26.0795 20.9956 27.7705 17.6343 27.4786H10.0436C9.15531 27.4786 8.73136 26.8747 9.02409 26.0392L10.5786 21.691H21.5306L23.7109 15.3397H13.203L11.2448 15.3095C6.84377 15.2793 5.50126 14.8767 3.88621 19.6074L1.50401 26.5928C0.534985 24.3885 0 21.9527 0 19.386C0 9.45141 8.08534 1.38901 18.0583 1.38901Z" fill="#C3181E"/>
<path d="M39.1751 4.0161C39.1751 6.2305 37.3783 8.03221 35.1475 8.03221C32.9167 8.03221 31.12 6.24056 31.12 4.0161C31.12 1.79165 32.9167 0 35.1475 0C37.3783 0 39.1751 1.79165 39.1751 4.0161Z" fill="#C3181E"/>
</g>
<defs>
<clipPath id="clip0_152_111">
<rect width="40" height="38" fill="white"/>
</clipPath>
</defs>
</svg>
